<?xml version="1.0" standalone="no"?>
<!DOCTYPE svg PUBLIC "-//W3C//DTD SVG 20010904//EN"
 "http://www.w3.org/TR/2001/REC-SVG-20010904/DTD/svg10.dtd">
<svg version="1.0" xmlns="http://www.w3.org/2000/svg"
 width="2048.000000pt" height="2048.000000pt" viewBox="0 0 2048.000000 2048.000000"
 preserveAspectRatio="xMidYMid meet">
<metadata>
Created by potrace 1.11, written by Peter Selinger 2001-2013
</metadata>
<g transform="translate(0.000000,2048.000000) scale(0.100000,-0.100000)"
fill="#000000" stroke="none">
<path d="M8715 14938 c5 -13 2 -15 -14 -11 -12 3 -22 1 -22 -3 -7 -44 -6 -55
4 -45 6 6 22 11 36 11 13 0 33 8 44 18 17 14 19 14 15 2 -4 -11 1 -16 13 -17
10 -1 19 2 19 8 0 5 5 9 11 9 5 0 7 -6 4 -12 -4 -7 1 -4 9 6 14 17 16 18 16 3
0 -9 5 -17 10 -17 6 0 10 5 10 11 0 7 10 5 25 -5 14 -9 31 -14 37 -10 8 5 9 1
5 -12 -7 -18 -7 -18 7 0 18 22 39 12 31 -15 -5 -14 -3 -17 9 -13 9 3 16 2 16
-4 0 -6 9 -8 20 -5 15 4 20 0 20 -13 0 -16 2 -17 10 -4 8 13 11 11 16 -7 4
-13 12 -23 19 -23 8 0 17 -9 20 -20 4 -11 11 -18 16 -15 5 4 9 2 9 -3 0 -16
38 -21 44 -6 6 15 -41 71 -55 67 -5 -2 -8 3 -6 10 1 7 -6 11 -17 9 -12 -2 -16
1 -10 10 4 7 3 10 -1 5 -5 -4 -15 -1 -24 7 -9 8 -25 16 -36 18 -11 2 -20 10
-20 18 0 9 -12 15 -34 17 -19 2 -40 8 -47 14 -8 6 -14 8 -14 3 0 -5 -5 -2 -10
6 -9 13 -11 13 -20 0 -8 -13 -10 -12 -10 4 0 15 -3 16 -14 7 -10 -9 -16 -9
-21 -1 -7 12 -63 4 -79 -11 -6 -5 -17 -2 -28 8 -17 15 -18 15 -13 1z"/>
<path d="M8627 14916 c-3 -8 -16 -13 -29 -12 -26 2 -78 -20 -78 -33 0 -4 -11
-6 -25 -3 -16 3 -25 0 -25 -8 0 -7 -6 -10 -14 -7 -9 4 -16 -3 -20 -19 -5 -19
-13 -24 -36 -24 -23 0 -30 -4 -30 -20 0 -11 -3 -19 -7 -19 -21 3 -31 -3 -36
-21 -3 -13 -14 -20 -29 -20 -18 0 -20 -2 -8 -10 13 -8 13 -10 -2 -10 -9 0 -26
-12 -37 -27 -12 -16 -18 -20 -15 -11 3 9 -17 -6 -44 -33 -28 -28 -50 -52 -49
-53 5 -8 -26 -35 -34 -30 -5 3 -9 -4 -9 -15 0 -14 -5 -19 -15 -15 -10 4 -13 0
-10 -15 2 -11 0 -23 -6 -26 -5 -4 -9 0 -9 7 0 7 -7 0 -15 -16 -8 -15 -15 -35
-15 -43 0 -9 -6 -13 -15 -9 -13 5 -20 -12 -12 -30 1 -3 -6 -10 -16 -15 -9 -6
-15 -14 -12 -19 6 -9 -13 -25 -30 -25 -5 0 -11 -10 -13 -22 -2 -13 -7 -23 -12
-23 -5 0 -16 -7 -25 -16 -12 -12 -13 -19 -4 -30 8 -10 5 -15 -15 -20 -29 -7
-35 -24 -8 -25 10 0 12 -3 4 -6 -6 -2 -10 -9 -6 -14 7 -12 -3 -11 -25 1 -15 8
-18 5 -17 -18 1 -19 -3 -26 -15 -24 -9 1 -16 -4 -17 -10 0 -7 -3 -24 -7 -38
-3 -14 -8 -36 -11 -49 -7 -32 -13 -43 -24 -36 -4 3 -6 -4 -3 -14 3 -10 0 -29
-7 -40 -9 -17 -8 -25 5 -37 13 -14 15 -13 17 8 0 13 1 28 1 35 0 6 5 9 12 7 8
-3 15 9 19 35 3 23 10 41 15 41 19 0 21 34 4 53 -12 14 -13 18 -3 12 20 -13
41 -15 35 -5 -3 5 -1 11 4 15 6 3 7 13 4 23 -3 9 -3 14 1 10 12 -10 45 23 39
38 -3 9 2 14 12 14 9 0 14 4 11 9 -3 5 1 14 9 21 8 7 12 17 9 22 -3 5 3 12 14
15 14 3 18 11 15 24 -3 11 0 19 7 19 12 0 40 24 40 35 0 7 18 29 48 60 12 12
22 27 22 34 0 6 8 19 18 29 9 10 24 28 32 40 8 12 21 22 30 23 10 0 11 2 3 6
-7 2 -13 9 -13 14 0 6 5 7 10 4 6 -3 13 1 16 9 3 9 11 13 17 9 6 -4 8 0 4 10
-4 12 -1 17 12 17 10 0 35 19 56 43 21 23 42 41 47 39 5 -1 14 9 20 23 11 24
21 30 42 26 5 -1 3 6 -5 15 -12 16 -12 17 3 11 11 -4 28 4 47 22 25 23 31 25
34 12 3 -10 5 -7 6 7 0 13 6 20 11 17 6 -3 10 -1 10 6 0 6 8 9 20 6 11 -3 20
-1 20 4 0 5 6 9 14 9 8 0 16 6 19 13 2 6 13 13 25 13 48 3 57 5 68 12 6 4 14
16 18 27 4 16 1 21 -13 22 -11 1 -22 -4 -24 -11z"/>
<path d="M9173 14725 c-4 -13 -8 -14 -14 -4 -4 8 -11 11 -14 7 -3 -3 15 -27
40 -53 25 -26 45 -51 45 -56 0 -5 5 -9 11 -9 5 0 7 -4 4 -10 -3 -5 -1 -10 4
-10 6 0 10 -3 10 -7 -4 -27 3 -45 15 -40 10 4 16 -5 20 -29 4 -19 11 -34 15
-34 10 0 34 -55 34 -78 0 -9 6 -23 14 -31 7 -9 13 -20 12 -25 0 -5 4 -12 10
-16 6 -3 13 -17 16 -29 7 -38 16 -61 23 -61 4 0 6 -19 4 -41 -3 -32 -1 -40 8
-34 10 6 12 1 8 -19 -3 -14 -2 -28 2 -31 4 -2 6 -14 5 -27 -1 -13 5 -28 14
-34 12 -9 13 -15 3 -26 -6 -8 -9 -18 -6 -21 4 -4 8 -17 10 -29 7 -50 30 -119
37 -112 4 4 7 2 7 -4 0 -7 -4 -12 -10 -12 -16 0 -12 -15 10 -40 23 -27 25 -37
8 -43 -10 -3 -10 -7 -1 -18 7 -8 10 -30 8 -49 -3 -18 0 -39 6 -46 6 -7 8 -17
5 -23 -4 -5 0 -16 8 -24 8 -8 13 -17 11 -19 -10 -10 -14 -98 -5 -103 6 -3 10
-13 10 -21 0 -8 -4 -13 -8 -10 -5 3 -9 -1 -9 -9 0 -8 4 -12 9 -9 4 3 8 -1 8
-10 0 -8 -5 -16 -11 -18 -8 -3 -6 -10 5 -21 13 -12 14 -17 4 -17 -8 -1 -6 -6
6 -15 10 -8 23 -12 27 -9 5 3 9 0 9 -6 0 -8 -9 -10 -26 -6 -18 5 -24 3 -19 -5
4 -6 10 -64 12 -128 2 -64 6 -140 9 -168 2 -30 0 -53 -5 -53 -6 0 -9 -9 -8
-20 1 -11 8 -20 15 -20 8 0 12 -6 9 -13 -5 -14 17 -39 27 -30 3 4 6 1 6 -6 0
-8 -7 -10 -20 -6 -20 6 -21 5 -25 -45 0 -8 -4 -20 -8 -27 -4 -6 -4 -14 1 -17
5 -3 7 -19 6 -35 -1 -17 2 -33 7 -36 4 -3 5 -16 1 -28 -14 -39 -2 -139 16
-145 23 -7 11 -19 -14 -14 -23 4 -25 3 -16 -14 5 -11 9 -46 7 -79 -1 -33 3
-66 8 -73 7 -8 6 -20 -1 -35 -19 -40 -22 -72 -7 -100 12 -23 12 -32 2 -48 -10
-16 -9 -21 3 -29 10 -6 11 -10 3 -10 -7 0 -13 -6 -13 -14 0 -8 6 -17 13 -19 9
-4 9 -6 -1 -6 -8 -1 -10 -9 -6 -27 6 -22 4 -25 -7 -19 -12 7 -11 6 0 -9 10
-11 11 -20 5 -24 -14 -9 -13 -65 0 -74 7 -5 6 -8 -3 -8 -7 0 -11 -6 -8 -14 3
-8 1 -17 -6 -20 -9 -5 -9 -7 1 -12 6 -3 12 -10 12 -15 0 -6 -4 -8 -8 -5 -4 2
-8 -3 -8 -12 0 -9 -3 -30 -7 -45 -6 -21 -5 -27 4 -22 8 5 9 1 4 -14 -15 -47
-13 -91 3 -101 10 -5 12 -10 6 -10 -7 0 -19 -11 -28 -25 -10 -15 -12 -24 -5
-23 6 2 14 -3 17 -11 2 -8 0 -11 -6 -7 -6 3 -9 -1 -8 -11 2 -10 -2 -21 -8 -25
-7 -5 -3 -8 9 -8 17 0 17 -2 5 -10 -8 -5 -10 -10 -5 -10 6 0 5 -4 -2 -8 -14
-9 -24 -122 -11 -122 5 0 6 -5 3 -10 -4 -6 -9 -8 -13 -6 -4 2 -7 -11 -7 -29 0
-18 3 -31 8 -28 4 2 7 -3 7 -11 0 -9 -4 -16 -9 -16 -5 0 -11 -20 -12 -44 -2
-24 -1 -42 4 -39 4 2 7 -3 7 -11 0 -9 -8 -16 -17 -16 -14 0 -15 -2 -5 -9 16
-10 18 -21 4 -30 -17 -10 -19 -46 -3 -43 12 3 12 0 2 -12 -7 -8 -10 -20 -6
-26 3 -5 2 -10 -4 -10 -7 0 -6 -9 2 -27 9 -21 9 -27 -1 -31 -6 -2 -12 -12 -12
-22 0 -10 -8 -21 -17 -25 -22 -9 -63 -13 -63 -5 0 8 -75 4 -89 -4 -7 -4 -19
-2 -28 6 -9 7 -14 8 -10 2 4 -7 -2 -14 -13 -17 -11 -3 -22 -1 -25 4 -3 4 -11
6 -19 3 -7 -3 -31 -1 -54 4 -23 6 -40 6 -37 2 3 -4 -4 -10 -15 -13 -11 -3 -20
-1 -20 3 0 4 -18 7 -40 7 -22 -1 -40 -5 -40 -9 0 -4 -7 -5 -15 -2 -8 4 -15 1
-15 -5 0 -7 -10 -3 -22 9 -12 11 -24 16 -27 11 -3 -4 -30 -15 -59 -24 -44 -12
-53 -13 -48 -2 3 9 0 12 -10 8 -7 -3 -14 -9 -14 -15 0 -5 -5 -6 -12 -2 -6 4
-16 1 -22 -7 -13 -18 -83 -52 -94 -46 -9 6 -33 -19 -25 -27 4 -3 -3 -6 -15 -6
-11 0 -22 -5 -24 -11 -2 -5 -22 -13 -46 -16 -23 -3 -39 -9 -36 -14 3 -5 0 -9
-5 -9 -22 0 -26 -4 -39 -34 -10 -24 -15 -28 -22 -16 -6 9 -10 10 -10 3 0 -6
-9 -15 -21 -18 -11 -4 -18 -12 -16 -18 5 -16 -20 -40 -33 -32 -6 4 -10 3 -9
-2 5 -28 -3 -43 -22 -43 -15 0 -19 -4 -15 -16 4 -12 2 -15 -9 -10 -9 3 -15 0
-15 -9 0 -8 -6 -15 -14 -15 -8 0 -18 -5 -22 -12 -4 -7 -3 -8 4 -4 19 11 14 -5
-8 -28 -47 -49 -69 -76 -63 -76 3 0 -5 -10 -19 -22 -14 -13 -24 -31 -23 -41 2
-9 -1 -15 -5 -12 -12 7 -32 -31 -28 -53 2 -10 -3 -16 -10 -14 -8 1 -11 -1 -8
-6 3 -5 -1 -20 -9 -35 -10 -19 -10 -27 -2 -31 9 -3 9 -5 0 -5 -7 -1 -10 -8 -6
-18 5 -12 2 -15 -10 -10 -13 5 -16 1 -13 -16 2 -12 10 -21 17 -19 8 1 3 -7
-10 -18 -15 -13 -21 -26 -17 -37 4 -9 1 -20 -6 -25 -10 -6 -10 -10 1 -17 12
-8 12 -12 -2 -25 -9 -9 -14 -23 -11 -31 3 -8 2 -20 -2 -27 -11 -17 -13 -48 -3
-48 4 0 0 -23 -8 -52 -12 -39 -13 -56 -4 -69 9 -15 8 -17 -5 -12 -14 5 -15 3
-5 -15 6 -11 8 -28 5 -36 -4 -9 -1 -22 5 -30 6 -7 8 -16 4 -19 -3 -4 -7 -42
-8 -86 -2 -77 -1 -80 18 -70 19 11 19 11 1 -15 -11 -14 -22 -26 -25 -26 -3 0
-4 -11 -1 -25 2 -14 8 -22 13 -19 5 3 9 0 9 -5 0 -6 -3 -11 -7 -11 -10 0 -10
-62 0 -78 5 -7 5 -21 2 -32 -4 -11 -3 -20 2 -20 4 0 8 -11 8 -25 0 -14 -3 -25
-7 -25 -5 0 -8 -5 -8 -11 0 -5 4 -8 8 -5 5 3 8 -5 7 -17 -1 -12 2 -28 8 -35 7
-9 7 -16 -1 -24 -11 -11 2 -45 22 -60 6 -4 4 -13 -3 -22 -10 -12 -11 -16 -1
-16 7 0 10 -7 6 -16 -3 -8 -2 -12 4 -9 6 3 10 -3 10 -14 0 -11 5 -23 10 -26 6
-3 10 -11 10 -16 0 -6 -3 -8 -8 -5 -15 9 -3 -68 13 -80 9 -7 15 -20 13 -30 -5
-26 19 -28 32 -3 10 17 9 23 -1 30 -8 5 -11 9 -7 9 4 0 1 15 -7 34 -8 18 -12
36 -9 39 4 3 0 15 -8 26 -8 11 -13 36 -12 56 2 21 -1 33 -6 30 -6 -4 -10 15
-10 45 0 40 -5 56 -20 68 -14 12 -18 24 -14 40 4 12 10 22 14 22 11 0 2 60
-11 76 -8 10 -8 14 -1 14 10 0 9 16 -4 78 -3 15 -5 41 -4 57 3 38 2 53 -4 93
-4 21 -2 32 7 32 8 0 7 4 -3 10 -12 8 -13 11 -1 19 9 6 10 11 2 15 -7 4 -7 15
-1 31 10 26 4 55 -14 67 -7 5 -7 8 2 8 9 0 11 7 7 20 -3 11 -2 20 3 20 6 0 8
10 4 22 -4 15 -2 19 7 13 10 -6 11 -3 1 16 -10 18 -10 24 2 33 12 9 13 15 4
30 -8 14 -8 20 1 23 8 3 11 14 7 28 -3 12 -1 26 5 29 7 5 7 15 1 31 -7 20 -6
25 5 25 17 0 20 26 5 35 -13 8 -13 35 -1 35 5 0 12 -8 14 -17 5 -18 9 12 11
67 1 16 6 24 15 22 8 -2 11 3 8 12 -4 9 -2 18 4 22 6 3 3 11 -7 19 -17 12 -16
13 3 19 14 4 23 19 28 42 4 26 10 34 21 30 12 -5 14 -1 9 15 -5 15 -4 19 4 15
6 -4 11 0 11 10 0 9 16 32 35 51 22 22 35 44 36 61 0 24 1 24 8 7 8 -19 8 -19
15 3 4 12 12 19 18 16 6 -4 9 -1 6 7 -5 15 50 76 64 72 4 -2 8 3 8 11 0 8 7
17 16 20 8 3 12 10 9 16 -4 6 7 13 25 16 17 4 33 10 35 14 3 5 -5 6 -17 3 -18
-4 -20 -3 -12 6 6 7 20 14 30 16 11 1 18 8 16 14 -1 6 9 16 23 21 14 5 25 14
25 20 0 5 3 9 8 9 19 -3 33 2 27 11 -3 6 1 10 9 10 8 0 14 -6 12 -12 -1 -7 -1
-10 1 -5 3 4 9 5 14 2 5 -4 7 0 4 7 -7 19 50 49 65 34 10 -8 11 -8 6 2 -4 7
-2 12 6 13 29 3 34 5 60 23 16 10 35 16 43 12 9 -3 13 -2 10 4 -3 6 -3 10 2
11 15 1 38 7 56 14 9 4 17 3 17 -3 0 -7 10 -6 30 1 22 9 33 8 42 -1 9 -9 14
-7 24 6 9 12 13 13 14 4 0 -9 7 -11 20 -7 13 4 20 2 20 -7 0 -10 3 -9 10 2 5
8 10 11 10 5 0 -5 14 -11 32 -11 29 -1 30 0 13 12 -18 13 -18 14 3 14 13 0 22
-6 22 -16 0 -10 4 -12 13 -7 17 11 57 11 57 -1 0 -5 9 -1 21 10 13 12 23 14
27 8 8 -12 55 -26 47 -14 -3 4 4 10 14 13 13 3 18 0 15 -7 -3 -7 2 -13 11 -13
8 0 15 4 15 8 0 4 15 5 33 3 23 -4 28 -2 17 5 -11 7 -3 10 28 8 23 0 42 -5 42
-9 0 -4 -5 -8 -11 -8 -8 0 -8 -4 1 -15 6 -8 9 -18 6 -23 -5 -9 -18 -114 -18
-145 1 -10 -6 -27 -15 -37 -22 -25 -27 -61 -11 -72 10 -6 10 -13 -3 -36 -9
-15 -15 -45 -15 -65 1 -20 -2 -37 -6 -37 -4 0 -5 -7 -2 -15 4 -8 2 -21 -3 -28
-5 -6 -9 -25 -9 -42 1 -16 -3 -34 -9 -38 -6 -6 -6 -10 3 -14 9 -3 7 -11 -7
-29 -14 -18 -17 -32 -11 -62 6 -36 -8 -70 -24 -55 -4 4 -5 -4 -4 -18 2 -13 8
-27 13 -31 6 -4 2 -8 -7 -8 -13 0 -18 -8 -18 -27 0 -16 -6 -40 -14 -55 -12
-23 -12 -27 1 -32 29 -12 41 -6 41 20 0 15 5 30 12 34 6 4 10 16 9 26 -2 11 3
36 10 57 7 21 10 41 7 44 -3 4 -1 12 5 19 6 8 9 20 6 29 -4 8 0 21 8 28 10 10
11 17 3 25 -8 8 -8 15 1 26 10 12 10 23 3 45 -8 23 -8 29 2 25 22 -9 29 55 9
85 -13 20 -13 23 -1 14 18 -16 32 -5 17 14 -9 9 -8 13 0 13 6 0 11 7 11 15 0
8 5 15 10 15 6 0 10 12 10 26 0 14 -4 23 -9 20 -5 -4 -7 8 -4 25 3 20 0 35 -9
40 -9 6 -6 9 11 9 20 0 22 4 17 24 -4 18 -1 28 11 35 13 8 15 13 6 19 -9 6
-11 47 -2 47 1 0 3 19 3 43 1 23 -2 42 -7 42 -6 0 2 11 16 24 17 16 33 22 47
19 12 -3 20 0 20 7 0 8 9 11 24 8 18 -4 26 0 30 15 4 17 7 18 20 7 9 -7 16 -8
16 -2 0 5 8 8 18 6 11 -3 25 7 40 28 20 29 22 30 22 10 0 -12 -3 -21 -8 -19
-4 1 -8 -1 -10 -5 -2 -9 -4 -9 25 -2 13 4 20 10 17 15 -3 5 2 9 10 9 9 0 16 5
16 12 0 9 3 9 11 1 12 -12 42 -6 34 7 -3 4 16 13 41 19 30 8 43 15 38 24 -5 9
-4 9 6 0 10 -9 17 -7 31 10 15 19 21 20 38 10 11 -7 21 -9 23 -5 5 11 86 62
99 62 6 0 9 7 6 14 -5 13 26 33 44 28 3 0 12 10 19 23 15 28 40 33 40 9 0 -10
5 -14 16 -10 8 3 13 2 11 -2 -3 -4 1 -13 9 -20 8 -7 14 -9 15 -5 0 4 2 23 4
42 2 19 7 37 12 40 16 12 11 26 -13 38 -19 9 -27 8 -39 -4 -8 -8 -13 -18 -10
-22 2 -5 -7 -7 -20 -5 -14 1 -23 -2 -20 -6 7 -11 -30 -32 -39 -23 -4 4 -9 -2
-12 -14 -4 -13 -12 -19 -19 -17 -8 3 -20 -7 -29 -23 -8 -15 -15 -24 -16 -19 0
5 -7 3 -15 -4 -8 -6 -19 -9 -25 -5 -5 3 -10 -1 -10 -10 0 -9 -4 -14 -9 -11
-12 8 -42 -4 -36 -14 3 -4 -2 -10 -10 -14 -8 -3 -15 -1 -15 4 0 5 -7 7 -15 4
-8 -4 -12 -11 -8 -18 4 -6 -1 -5 -10 3 -14 11 -18 11 -23 -3 -3 -9 -10 -13
-15 -10 -5 3 -9 1 -9 -4 0 -9 -32 -24 -58 -26 -7 -1 -17 -8 -22 -16 -8 -12
-10 -12 -10 -1 0 10 -3 11 -13 2 -8 -6 -17 -8 -20 -4 -4 3 -13 1 -20 -5 -8 -7
-17 -9 -21 -5 -4 4 -9 -2 -12 -14 -5 -16 -13 -21 -40 -19 -19 1 -34 -3 -34 -7
0 -5 -9 -7 -20 -4 -11 3 -18 0 -17 -6 1 -6 -12 -11 -29 -12 -17 -1 -37 -5 -44
-10 -9 -6 -10 -3 -1 13 8 15 8 22 -2 25 -8 4 -8 8 -2 14 6 4 11 32 13 62 2 30
7 62 12 71 5 9 4 23 -2 34 -7 12 -7 17 0 12 5 -3 12 5 14 19 3 14 1 25 -3 25
-13 0 -4 40 10 50 10 6 11 12 1 30 -7 12 -8 20 -3 17 4 -3 6 15 4 40 -2 36 0
44 10 37 9 -5 7 2 -4 20 -18 27 -18 28 1 22 20 -7 22 8 6 63 -5 18 -4 22 5 16
10 -6 12 0 6 24 -4 20 -3 31 5 31 7 0 8 6 0 19 -13 25 -13 44 0 36 6 -4 8 13
6 44 -3 28 -1 51 4 51 17 0 20 33 4 45 -10 6 -14 17 -10 23 4 7 2 12 -5 12 -9
0 -9 3 0 14 6 8 11 18 9 22 -1 5 4 20 11 33 8 14 9 21 2 17 -6 -4 -11 -2 -11
3 0 6 4 11 9 11 12 0 8 60 -4 60 -5 0 -3 5 5 10 11 7 12 12 3 21 -9 9 -9 17
-1 33 16 30 19 66 5 66 -7 0 -6 4 3 11 10 7 11 12 4 15 -9 4 -8 14 3 36 13 24
13 32 3 38 -9 6 -11 22 -6 57 11 75 13 133 4 133 -9 0 -11 44 -2 53 8 7 12
127 4 127 -3 0 -6 16 -7 35 -2 19 1 35 5 35 5 0 9 7 9 15 0 8 -5 15 -10 15 -5
0 -6 12 -3 28 11 45 14 92 5 92 -5 0 -9 5 -9 11 0 5 6 7 13 3 9 -6 8 -3 -1 8
-10 13 -11 22 -2 37 8 15 8 27 0 42 -7 11 -9 27 -6 34 3 8 1 17 -4 20 -18 11
-11 35 8 28 15 -6 15 -5 4 10 -8 9 -11 21 -8 26 4 5 2 12 -2 15 -9 5 -6 77 3
103 2 8 -2 10 -13 6 -15 -6 -15 -5 -3 10 11 14 11 20 0 33 -9 11 -10 17 -1 22
11 7 10 37 -3 80 -5 14 -3 22 4 22 14 0 14 12 -1 47 -15 37 -17 76 -4 85 8 5
8 8 0 8 -6 0 -9 17 -8 40 1 22 -2 40 -7 40 -5 0 -4 11 3 25 8 19 8 28 -3 42
-9 11 -10 14 -1 9 6 -4 12 -3 12 3 0 5 -4 12 -9 15 -5 3 -12 30 -16 61 -3 30
-11 57 -16 60 -5 4 -9 20 -9 38 0 85 -10 150 -25 167 -11 13 -13 19 -4 22 9 3
9 9 0 26 -6 12 -16 22 -21 22 -5 0 -3 15 5 33 12 30 12 34 -5 45 -14 8 -18 21
-16 46 1 22 -3 37 -11 40 -9 4 -11 14 -7 32 5 18 3 25 -4 20 -6 -4 -8 2 -5 14
4 13 -1 27 -13 36 -11 9 -13 13 -6 9 17 -9 15 10 -3 25 -10 8 -13 21 -9 33 4
13 2 17 -5 13 -10 -6 -15 6 -12 27 0 4 -2 7 -6 7 -5 0 -9 12 -9 26 -1 14 -10
31 -20 38 -9 7 -14 18 -10 24 4 7 2 12 -4 12 -6 0 -8 4 -5 10 3 6 -1 7 -9 4
-16 -6 -20 4 -17 39 1 9 -2 17 -7 17 -11 0 -52 35 -52 44 0 4 5 4 10 1 6 -3
10 -1 10 4 0 6 -9 11 -20 11 -13 0 -17 5 -14 14 3 8 -4 19 -16 26 -12 7 -19
18 -16 26 3 7 -3 18 -15 24 -15 9 -21 7 -26 -5z m414 -2447 c-3 -8 -6 -5 -6 6
-1 11 2 17 5 13 3 -3 4 -12 1 -19z m-247 -2198 c0 -5 -5 -10 -11 -10 -5 0 -7
5 -4 10 3 6 8 10 11 10 2 0 4 -4 4 -10z"/>
<path d="M7715 13899 c-4 -6 -5 -13 -2 -16 7 -7 27 6 27 18 0 12 -17 12 -25
-2z"/>
<path d="M7717 13873 c-12 -3 -16 -10 -13 -20 4 -9 -1 -27 -9 -40 -9 -13 -15
-34 -13 -46 2 -16 10 -5 28 40 13 34 29 59 34 56 5 -3 6 -1 2 5 -4 7 -8 11 -9
11 -1 -1 -10 -3 -20 -6z"/>
<path d="M7663 13735 c0 -8 4 -15 9 -15 4 0 8 4 8 9 0 6 -4 12 -8 15 -5 3 -9
-1 -9 -9z"/>
<path d="M7653 13695 c-8 -9 -9 -16 -3 -20 6 -3 13 1 16 10 9 21 2 26 -13 10z"/>
<path d="M12528 12872 c-19 -4 -25 -22 -7 -22 6 0 4 -9 -5 -21 -15 -23 -12
-73 7 -96 6 -9 4 -21 -7 -38 -10 -14 -12 -25 -6 -25 6 0 8 -4 5 -10 -3 -5 0
-10 7 -10 9 -1 9 -4 -3 -13 -13 -10 -13 -16 -2 -37 7 -14 8 -26 4 -28 -5 -2
-6 -16 -1 -32 5 -18 5 -32 -1 -36 -6 -3 -4 -15 5 -29 14 -22 12 -65 -4 -65 -4
0 -7 -11 -6 -25 0 -14 3 -25 6 -25 3 0 6 -9 7 -20 1 -11 -2 -20 -6 -20 -13 0
-7 -65 8 -76 8 -6 10 -13 5 -17 -5 -3 -9 -39 -9 -80 1 -42 -3 -73 -7 -71 -11
7 -10 -4 2 -27 6 -11 7 -19 2 -19 -13 0 -22 -39 -11 -46 5 -3 7 -10 4 -15 -4
-5 -3 -9 2 -9 4 0 7 -13 7 -30 -2 -44 -3 -47 -14 -30 -11 18 -12 3 -1 -25 6
-14 2 -24 -15 -38 -12 -9 -29 -16 -36 -15 -7 2 -12 -3 -11 -9 2 -8 -8 -13 -26
-13 -17 0 -33 -4 -36 -10 -3 -5 -22 -10 -41 -10 -21 0 -33 -4 -29 -10 3 -5 -3
-10 -14 -10 -11 0 -25 -10 -32 -21 -9 -17 -8 -20 2 -14 9 6 11 3 6 -8 -7 -17
6 -31 17 -19 4 4 21 7 38 8 17 1 35 9 40 18 5 9 19 16 31 16 12 0 33 9 47 20
26 21 60 27 60 11 0 -6 -5 -13 -11 -17 -8 -4 -7 -9 2 -15 8 -5 9 -9 3 -9 -6 0
-11 -30 -11 -79 0 -43 -4 -84 -8 -91 -4 -7 -1 -16 6 -21 8 -5 10 -9 4 -9 -5 0
-9 -19 -9 -42 1 -24 -3 -54 -9 -68 -5 -14 -9 -40 -8 -58 1 -17 -3 -41 -9 -52
-7 -13 -7 -20 -1 -20 12 0 2 -32 -13 -42 -7 -6 -6 -11 4 -18 8 -5 10 -10 4
-10 -17 0 -37 -79 -24 -95 7 -8 7 -15 1 -19 -5 -3 -12 0 -15 6 -3 7 -3 3 0 -9
3 -14 1 -23 -6 -23 -6 0 -10 -15 -10 -32 1 -50 -11 -99 -25 -104 -8 -3 -11
-14 -7 -27 3 -12 2 -19 -3 -15 -10 10 -57 -82 -56 -109 0 -13 -4 -23 -9 -23
-6 0 -10 -7 -10 -16 0 -8 -5 -12 -10 -9 -6 4 -10 3 -9 -2 4 -15 -21 -63 -32
-63 -8 0 -7 -5 2 -17 12 -15 12 -16 -3 -10 -12 4 -18 2 -18 -8 0 -8 -5 -15
-11 -15 -6 0 -9 -6 -6 -13 5 -15 -19 -48 -48 -65 -11 -6 -14 -12 -7 -12 20 0
14 -16 -13 -30 -13 -7 -22 -16 -20 -20 3 -4 -8 -8 -23 -8 -15 0 -30 5 -33 10
-3 5 -16 10 -27 11 -16 1 -22 8 -22 25 0 13 -4 20 -10 17 -5 -3 -10 -1 -10 4
0 6 -8 11 -17 11 -14 0 -15 2 -4 9 8 5 10 14 5 22 -7 11 -16 89 -14 127 0 6 0
20 0 30 -1 90 5 127 20 124 10 -2 10 1 3 10 -13 17 -9 98 5 107 6 3 12 29 14
56 1 28 6 53 11 56 11 8 12 37 2 73 -6 21 -5 27 4 22 23 -14 10 12 -14 28 -24
16 -25 15 -40 -15 -11 -20 -21 -29 -31 -25 -9 3 -12 1 -9 -4 8 -12 -19 -53
-28 -43 -4 3 -7 1 -7 -5 0 -7 -9 -12 -19 -12 -11 0 -26 -7 -35 -15 -8 -8 -23
-15 -33 -16 -16 0 -16 -1 2 -9 l20 -9 -20 -2 c-11 -1 -29 -2 -40 -1 -11 0 -23
-5 -27 -12 -5 -7 -11 -8 -15 -1 -5 6 -26 10 -47 10 -28 0 -48 7 -65 23 -13 12
-31 20 -38 18 -7 -3 -13 -1 -13 4 0 5 -6 7 -14 4 -21 -8 -27 -43 -9 -53 11 -5
13 -13 7 -22 -12 -19 -13 -69 0 -62 6 4 6 -1 2 -13 -4 -10 -10 -30 -12 -43 -3
-14 -8 -29 -11 -34 -3 -6 -1 -7 5 -3 17 11 15 -24 -4 -59 -9 -16 -17 -47 -17
-68 0 -23 -6 -41 -14 -44 -20 -8 -16 -26 5 -19 14 5 14 4 -2 -9 -11 -8 -16
-15 -10 -15 5 0 1 -5 -10 -11 -15 -9 -16 -13 -5 -20 10 -6 11 -11 3 -16 -16
-12 -24 -42 -13 -49 6 -4 6 -11 -1 -19 -7 -8 -9 -18 -6 -24 4 -5 -2 -12 -13
-16 -24 -7 -36 -35 -16 -35 21 0 19 -12 -6 -33 -11 -10 -18 -25 -15 -33 4 -10
2 -12 -6 -8 -7 5 -9 2 -5 -9 3 -9 1 -18 -6 -20 -9 -3 -8 -9 3 -22 14 -17 14
-18 -7 -6 -20 10 -23 9 -23 -8 0 -11 -14 -28 -34 -41 -20 -12 -33 -27 -30 -34
3 -7 -2 -16 -11 -20 -9 -3 -13 -10 -10 -16 3 -5 2 -10 -4 -10 -5 0 -12 6 -15
13 -5 9 -7 9 -12 -2 -4 -7 -15 -21 -25 -29 -11 -9 -19 -22 -19 -30 0 -7 -4
-10 -10 -7 -5 3 -10 2 -10 -3 0 -6 -10 -8 -22 -6 -13 2 -16 1 -8 -2 8 -4 19
-13 23 -21 7 -11 12 -11 22 -3 8 7 19 9 25 5 6 -3 10 3 10 14 0 12 -5 21 -12
21 -6 0 -8 3 -5 6 4 4 13 1 22 -6 10 -8 15 -9 15 -1 0 6 4 10 9 9 11 -3 71 61
71 75 0 5 7 6 16 3 11 -4 18 1 21 14 3 11 9 20 14 20 5 0 9 6 9 13 0 8 9 22
20 32 11 10 17 21 15 26 -3 4 -1 10 5 14 6 4 8 10 5 15 -9 14 6 40 24 41 11 0
12 2 3 6 -10 4 -10 8 3 17 17 12 32 72 15 61 -5 -3 -10 -2 -10 3 0 5 9 12 20
15 11 3 20 13 20 24 0 15 -2 16 -10 3 -8 -12 -10 -9 -10 13 0 15 5 27 11 27 5
0 8 4 4 9 -3 5 -1 12 5 16 5 3 10 17 10 30 0 13 4 26 9 29 5 3 7 22 4 41 -3
21 0 35 6 35 6 0 11 17 11 38 0 21 6 46 14 57 15 22 18 85 4 85 -5 0 -6 5 -3
10 4 6 9 27 11 47 5 43 4 40 29 45 11 1 19 -2 18 -8 -1 -6 5 -11 13 -11 7 0
14 5 14 10 0 5 6 4 14 -2 33 -27 146 -12 146 20 0 9 4 8 15 -1 17 -14 35 -5
35 18 0 10 9 23 20 30 17 10 20 10 20 -4 0 -8 5 -12 11 -9 6 4 8 13 5 20 -2 7
6 18 19 25 19 10 27 10 46 -4 19 -13 20 -16 6 -16 -9 0 -17 -7 -17 -15 0 -8
-3 -15 -8 -15 -4 0 -8 -19 -8 -42 -1 -56 -11 -128 -20 -152 -6 -15 -4 -17 7
-11 12 8 12 6 1 -8 -8 -9 -11 -21 -7 -27 3 -5 1 -10 -4 -10 -6 0 -11 -7 -11
-15 0 -8 6 -15 13 -15 7 0 8 -3 2 -8 -6 -4 -10 -25 -9 -47 1 -22 -1 -44 -4
-50 -11 -18 -12 -44 -2 -50 5 -3 7 -12 4 -19 -3 -8 -1 -17 4 -20 6 -3 8 -15 5
-25 -3 -10 0 -22 6 -25 6 -4 11 -15 11 -25 0 -10 8 -25 17 -32 15 -12 16 -12
10 5 -6 16 -5 17 8 6 9 -7 14 -19 11 -27 -6 -14 36 -29 53 -19 5 4 12 -3 16
-14 7 -21 20 -26 29 -11 4 5 0 12 -6 15 -7 3 -3 3 9 0 30 -7 68 20 88 63 13
27 19 32 26 22 6 -10 9 -4 9 17 0 24 5 33 21 37 12 3 18 10 15 16 -4 5 -1 13
5 16 5 4 8 13 5 21 -3 8 -2 14 3 14 5 0 12 11 15 25 4 14 11 23 16 20 5 -3 12
6 16 20 3 14 12 25 20 25 8 0 14 10 14 23 0 13 6 29 13 36 10 11 10 13 0 7 -7
-4 -13 -2 -13 3 0 6 4 11 10 11 5 0 14 9 20 20 9 16 8 19 -7 14 -10 -2 -8 1 5
7 14 8 21 18 17 27 -3 8 3 21 12 28 10 7 13 14 6 14 -13 0 -5 40 9 40 5 0 6 5
3 10 -3 6 -1 10 5 10 6 0 8 5 4 12 -4 6 1 17 10 24 20 14 22 24 6 34 -8 5 -7
11 3 22 10 9 12 20 7 29 -6 8 -4 16 3 21 15 10 27 10 26 1 -4 -25 2 -53 11
-48 6 3 10 2 10 -4 0 -5 -4 -13 -10 -16 -6 -4 -4 -17 5 -35 8 -16 15 -35 15
-43 0 -8 10 -22 23 -31 15 -12 17 -16 5 -12 -10 3 -18 1 -18 -4 0 -6 7 -10 16
-10 8 0 13 -4 10 -8 -3 -5 15 -25 40 -46 35 -29 48 -35 59 -26 9 7 15 8 20 0
4 -7 12 -7 26 0 10 6 19 8 19 4 0 -3 11 1 24 10 14 9 27 12 31 7 3 -6 16 0 28
12 13 12 33 29 45 37 12 8 22 24 23 35 0 11 3 14 6 8 8 -20 26 -15 21 5 -3 12
2 24 13 31 11 6 19 20 19 31 0 11 6 19 12 18 7 -2 14 7 16 20 2 12 8 20 13 17
8 -6 13 8 10 28 0 4 3 7 9 7 5 0 10 8 10 18 0 10 4 22 9 28 16 18 29 71 20 85
-7 11 -9 11 -9 1 0 -7 -8 -12 -17 -11 -10 1 -24 1 -30 0 -16 -1 -17 -31 -2
-31 8 0 7 -5 -1 -15 -7 -9 -10 -19 -6 -22 4 -4 11 -1 16 7 7 11 10 11 10 2 0
-7 -7 -15 -15 -18 -8 -4 -15 -12 -15 -20 0 -8 -5 -14 -11 -14 -5 0 -7 -5 -4
-10 3 -6 -1 -17 -9 -26 -9 -8 -16 -12 -16 -8 0 17 -29 -32 -30 -49 0 -11 -4
-15 -12 -11 -7 4 -8 3 -4 -5 4 -6 2 -19 -5 -27 -10 -12 -14 -12 -21 -2 -7 9
-8 6 -5 -9 3 -15 1 -20 -9 -16 -9 3 -14 -1 -14 -12 0 -11 -5 -15 -16 -11 -8 3
-12 2 -9 -4 3 -6 -1 -10 -9 -10 -10 0 -13 -6 -9 -17 4 -11 3 -14 -5 -9 -7 4
-12 3 -12 -1 0 -5 -8 -9 -17 -10 -10 -1 -35 -4 -55 -6 -27 -4 -45 0 -62 14
-13 10 -29 19 -36 19 -7 0 -9 8 -5 19 4 12 0 21 -12 25 -15 6 -15 8 -3 16 13
8 13 10 -2 10 -11 0 -15 6 -11 20 3 11 1 20 -3 20 -5 0 -10 19 -12 42 -1 23
-7 47 -13 54 -5 7 -9 27 -7 46 1 19 -2 40 -7 47 -5 10 -4 12 3 7 7 -4 12 -1
12 8 0 9 -6 16 -12 16 -9 0 -8 3 2 10 8 5 11 12 7 16 -4 4 -2 13 3 19 8 9 6
14 -6 19 -15 6 -15 8 0 31 14 22 15 25 1 25 -17 0 -20 26 -4 36 6 3 9 15 6 25
-3 11 -1 19 5 19 5 0 6 4 3 10 -3 5 0 19 8 31 11 15 13 29 7 50 -7 22 -5 31 8
38 12 7 13 12 5 23 -9 10 -8 18 3 32 8 11 14 25 14 30 0 6 -4 5 -9 -3 -6 -10
-10 -10 -16 -2 -4 7 2 20 12 29 13 12 18 27 16 51 -2 19 1 39 7 46 5 6 7 15 4
18 -4 3 5 12 20 18 14 7 26 17 26 22 0 5 9 7 20 4 11 -3 18 0 17 7 -1 6 7 11
18 11 11 0 25 7 32 15 8 10 12 11 13 3 0 -19 27 -4 33 18 3 12 11 17 21 13 8
-3 29 4 47 16 25 19 33 20 40 9 6 -9 9 -10 9 -2 0 7 12 11 27 10 18 -1 28 3
31 14 4 21 -30 30 -46 12 -7 -7 -18 -11 -24 -7 -7 4 -6 9 2 14 7 4 8 10 3 13
-6 4 -19 -3 -31 -13 -12 -11 -30 -21 -41 -23 -10 -2 -26 -9 -35 -16 -9 -8 -28
-13 -42 -13 -17 0 -24 -5 -20 -14 4 -10 -2 -14 -22 -13 -15 1 -39 -3 -53 -9
-15 -6 -30 -8 -33 -5 -11 11 -6 41 7 46 7 3 5 6 -6 6 -15 1 -16 4 -6 22 7 15
8 19 0 15 -7 -5 -8 -1 -4 10 7 20 8 76 1 90 -9 18 -8 73 2 79 5 3 10 11 10 16
0 6 -6 7 -12 3 -10 -6 -10 -5 -1 8 7 8 10 18 7 21 -10 9 -11 116 -2 111 12 -7
10 4 -4 26 -11 17 -10 22 1 29 12 8 12 13 -3 36 -12 18 -14 30 -7 39 7 8 6 20
-4 39 -8 15 -9 25 -4 21 11 -6 6 53 -5 64 -3 3 1 17 10 30 15 22 15 24 1 19
-13 -5 -16 1 -13 31 2 20 -1 42 -6 49 -5 7 -5 14 1 17 7 5 7 15 1 31 -5 14 -7
32 -4 40 4 8 1 15 -6 15 -6 0 -8 5 -3 13 19 31 4 57 -29 49z m37 -870 c-3 -3
-11 0 -18 7 -9 10 -8 11 6 5 10 -3 15 -9 12 -12z m8 -56 c4 -10 0 -12 -15 -8
-15 4 -17 7 -6 13 17 11 15 11 21 -5z m20 -63 c-7 -2 -21 -2 -30 0 -10 3 -4 5
12 5 17 0 24 -2 18 -5z m-33 -137 c0 -3 -4 -8 -10 -11 -5 -3 -10 -1 -10 4 0 6
5 11 10 11 6 0 10 -2 10 -4z m-60 -500 c0 -3 -4 -8 -10 -11 -5 -3 -10 -1 -10
4 0 6 5 11 10 11 6 0 10 -2 10 -4z m-7 -67 c5 -3 2 -9 -7 -12 -12 -5 -16 0
-16 15 0 12 3 17 8 12 4 -5 11 -12 15 -15z m-786 -151 c-3 -8 -6 -5 -6 6 -1
11 2 17 5 13 3 -3 4 -12 1 -19z m-172 -238 c3 -5 1 -10 -4 -10 -6 0 -11 5 -11
10 0 6 2 10 4 10 3 0 8 -4 11 -10z"/>
<path d="M11125 12531 c-10 -17 5 -32 25 -26 10 3 21 1 25 -5 3 -5 2 -10 -4
-10 -7 0 -7 -9 0 -29 5 -15 9 -32 8 -37 -1 -5 1 -21 5 -35 5 -16 2 -40 -8 -63
-9 -21 -11 -36 -5 -36 6 0 7 -5 3 -12 -5 -8 -2 -9 11 -4 14 5 15 3 8 -6 -13
-16 -22 -88 -11 -88 4 0 8 -5 8 -11 0 -5 -5 -7 -12 -3 -8 5 -9 2 -5 -9 3 -10
2 -17 -4 -17 -6 0 -5 -8 2 -21 8 -17 8 -27 -2 -47 -11 -20 -12 -26 -1 -30 10
-3 10 -7 0 -19 -16 -20 -19 -43 -7 -64 6 -12 5 -22 -4 -31 -8 -7 -13 -26 -12
-42 0 -15 -5 -30 -12 -33 -7 -3 -10 -10 -6 -17 10 -16 10 -40 -1 -48 -5 -3 -9
-28 -9 -55 0 -32 -6 -56 -19 -73 -12 -14 -15 -26 -9 -28 7 -2 8 -10 1 -21 -5
-10 -7 -21 -4 -24 3 -3 -1 -18 -9 -34 -9 -16 -14 -44 -13 -62 1 -19 -4 -40
-12 -48 -12 -12 -13 -16 -2 -23 9 -6 8 -10 -6 -18 -10 -6 -19 -23 -20 -39 -3
-52 -4 -54 -16 -47 -9 5 -9 2 1 -9 7 -9 9 -17 4 -17 -11 0 -13 -8 -16 -70 -1
-33 -9 -51 -27 -69 -14 -13 -18 -20 -10 -15 13 7 13 5 1 -9 -9 -11 -10 -17 -2
-17 6 0 11 -7 11 -15 0 -8 -7 -15 -16 -15 -11 0 -14 -5 -10 -16 4 -10 -1 -25
-10 -35 -10 -11 -12 -19 -6 -19 5 0 8 -9 5 -20 -3 -11 -10 -17 -17 -13 -6 4
-5 -1 3 -10 12 -15 12 -17 -4 -11 -13 5 -16 4 -11 -4 4 -7 2 -12 -5 -12 -9 0
-9 -3 0 -14 8 -9 8 -16 2 -20 -5 -4 -8 -15 -6 -26 2 -10 -3 -24 -11 -30 -7 -7
-11 -16 -8 -21 3 -5 0 -9 -6 -9 -7 0 -9 -8 -5 -21 5 -15 4 -19 -4 -15 -6 4
-11 1 -12 -6 0 -7 -5 -3 -11 10 -12 25 -38 30 -38 7 0 -8 -4 -15 -8 -15 -10 0
-7 -83 4 -119 5 -16 4 -22 -3 -18 -6 4 -13 -4 -16 -19 -3 -17 1 -28 10 -31 10
-4 11 -8 3 -13 -6 -4 -12 -18 -14 -31 -2 -13 -8 -36 -14 -50 -6 -15 -9 -38 -8
-52 4 -31 -20 -128 -33 -136 -4 -3 -14 -23 -22 -43 -7 -21 -19 -38 -26 -38 -8
0 -13 -7 -11 -16 2 -9 -6 -21 -17 -28 -25 -14 -36 -28 -32 -41 2 -5 -1 -15 -7
-21 -6 -7 -24 -28 -40 -48 -16 -19 -33 -33 -37 -30 -5 3 -9 0 -9 -6 0 -6 10
-15 23 -21 18 -7 15 -8 -15 -4 -30 5 -38 3 -39 -10 -3 -34 -5 -40 -17 -37 -7
1 -12 -2 -12 -6 0 -14 -68 -80 -75 -73 -4 3 -5 -1 -3 -9 2 -9 -6 -16 -19 -18
-12 -2 -29 -14 -38 -28 -13 -20 -19 -22 -35 -14 -10 6 -31 11 -45 12 -17 2
-28 10 -31 24 -4 16 -12 21 -26 19 -14 -3 -18 0 -14 10 3 8 -2 21 -10 30 -8 8
-13 19 -10 24 3 5 -4 11 -15 14 -15 4 -19 11 -15 25 8 23 -3 54 -15 46 -13 -7
-11 3 4 26 10 17 9 22 -2 29 -11 7 -11 9 0 13 11 4 12 10 1 32 -11 25 -11 28
3 22 13 -5 14 -2 4 15 -6 11 -8 23 -5 26 3 4 1 12 -5 20 -9 9 -8 13 0 13 7 0
10 18 8 50 -3 30 0 51 7 53 8 3 7 8 -1 17 -11 12 -9 54 4 90 3 8 7 29 8 46 1
17 5 36 9 42 3 6 -1 15 -10 20 -14 8 -14 10 2 26 10 11 13 21 8 24 -13 9 -13
52 -1 52 5 0 7 7 3 15 -3 8 -1 15 5 15 7 0 10 16 7 40 -2 22 -1 40 3 40 3 0 4
12 1 26 -3 19 -1 25 7 20 6 -4 11 -2 11 3 0 6 -4 11 -10 11 -15 0 -12 16 6 34
14 14 14 17 0 22 -14 5 -14 8 0 29 9 13 13 29 9 35 -3 5 -2 10 3 10 6 0 8 10
4 22 -3 12 -1 19 4 15 6 -3 10 11 11 31 2 53 5 72 13 72 8 0 30 70 30 98 0 11
-7 22 -15 26 -9 3 -15 0 -15 -9 0 -8 -8 -19 -17 -24 -16 -9 -16 -12 -3 -20 13
-9 13 -11 0 -16 -9 -3 -16 -22 -18 -47 -1 -23 -6 -45 -11 -48 -4 -3 -12 -23
-16 -45 -5 -22 -9 -42 -10 -45 -15 -46 -16 -62 -5 -75 9 -10 9 -15 1 -15 -6 0
-11 -7 -11 -15 0 -8 5 -15 12 -15 6 0 3 -9 -8 -21 -10 -11 -19 -30 -19 -42 0
-12 -4 -28 -9 -35 -5 -8 -1 -21 10 -33 15 -17 15 -19 2 -14 -14 6 -16 0 -13
-39 3 -31 0 -46 -8 -46 -7 0 -6 -4 3 -10 12 -8 12 -10 -3 -16 -9 -3 -14 -10
-11 -15 3 -5 11 -7 17 -3 7 3 3 -2 -7 -10 -19 -16 -19 -16 5 -17 18 -1 19 -3
6 -6 -10 -3 -16 -11 -13 -18 2 -7 2 -16 -1 -19 -3 -3 -7 -31 -9 -61 -1 -39 1
-53 10 -48 8 5 8 3 0 -8 -6 -8 -10 -31 -9 -51 0 -20 -3 -34 -8 -31 -5 3 -6
-18 -3 -46 3 -29 1 -61 -6 -76 -9 -21 -8 -28 7 -45 10 -11 13 -20 7 -20 -7 0
-12 -9 -12 -21 0 -12 4 -17 11 -13 7 4 9 -10 4 -47 -6 -49 -4 -56 19 -78 18
-17 24 -31 20 -44 -6 -18 0 -24 74 -87 6 -6 12 -7 12 -3 0 4 5 1 11 -7 7 -10
12 -11 15 -4 4 9 14 9 41 1 28 -9 37 -9 41 1 2 7 8 12 13 12 6 0 8 -4 5 -8 -3
-5 1 -9 9 -9 8 0 15 7 15 14 0 8 4 12 9 8 11 -6 43 23 37 34 -3 4 9 13 25 20
16 7 27 17 23 22 -3 5 2 9 11 9 9 0 13 5 10 10 -3 6 -1 10 5 10 6 0 8 5 5 10
-3 6 1 10 10 10 8 0 18 7 21 15 4 8 14 15 23 16 12 0 12 2 -4 9 -14 6 -16 9
-5 10 8 2 18 2 23 1 4 -1 13 10 19 24 6 14 16 25 21 25 6 0 8 3 4 6 -3 3 -2
11 3 18 52 63 60 77 54 87 -4 8 0 9 16 4 15 -5 20 -4 16 4 -4 6 -4 11 1 11 4
0 17 20 27 44 11 25 24 43 28 40 4 -3 9 -2 9 3 1 4 3 20 4 35 2 15 8 35 14 46
7 13 7 22 -1 30 -8 8 -6 15 5 26 19 19 23 20 25 4 2 -12 9 -59 11 -67 1 -2 8
3 18 10 15 13 15 12 0 -18 -19 -35 -13 -63 12 -63 12 0 13 -2 3 -9 -10 -6 -10
-10 1 -20 9 -7 13 -21 9 -34 -3 -12 -2 -19 2 -15 10 8 46 -23 46 -39 0 -9 9
-12 28 -8 15 3 21 2 14 -1 -6 -3 -9 -10 -6 -15 3 -6 11 -5 20 2 12 10 13 9 8
-6 -6 -14 -3 -16 13 -11 13 4 27 1 36 -9 17 -17 31 -20 22 -5 -8 13 8 13 22
-1 8 -8 17 -8 33 1 17 9 24 9 30 1 5 -8 14 -6 31 8 20 18 22 22 9 31 -8 5 -22
7 -30 3 -21 -9 -100 -10 -100 -1 0 5 -11 8 -25 8 -14 0 -25 5 -25 11 0 5 -5 7
-11 4 -12 -8 -49 27 -49 46 0 7 -9 9 -21 6 -16 -4 -18 -3 -8 9 9 11 8 14 -5
14 -13 0 -16 5 -11 19 4 13 0 23 -12 30 -14 8 -15 10 -3 11 9 0 11 3 5 8 -9 7
-11 18 -18 117 -1 22 -5 45 -8 50 -3 6 -5 27 -4 48 1 21 -2 40 -7 43 -5 3 -1
12 9 20 14 10 15 13 3 14 -11 0 -11 3 -2 12 7 7 12 23 12 37 0 21 2 23 10 11
8 -13 10 -13 10 2 0 9 -6 19 -12 21 -10 4 -10 6 -1 6 7 1 10 7 7 14 -7 19 14
69 26 62 6 -3 7 1 4 9 -4 10 -1 16 7 17 8 0 5 4 -6 9 -11 5 -14 9 -7 9 6 1 12
8 12 16 0 8 9 23 20 32 20 18 28 39 10 28 -5 -3 -10 -1 -10 4 0 6 4 11 9 11 5
0 12 18 16 40 4 22 11 40 17 40 6 0 7 11 4 26 -5 17 -3 23 4 19 9 -5 15 15 11
38 0 4 4 7 9 7 6 0 8 11 6 25 -3 14 -1 25 4 25 4 0 7 11 6 24 -2 18 1 23 12
19 11 -5 13 0 7 26 -4 19 -2 37 4 45 6 7 9 23 6 35 -4 20 -2 21 12 9 14 -11
16 -11 11 3 -4 9 -2 21 4 27 8 8 7 13 -5 18 -9 3 -14 10 -11 15 3 5 9 7 14 4
4 -3 7 3 5 12 -1 10 4 28 12 41 7 12 11 27 8 32 -3 6 -2 10 3 10 5 0 9 12 9
28 1 41 6 72 14 72 4 0 9 12 12 26 3 18 1 24 -9 20 -18 -7 -18 2 0 20 9 9 16
10 18 3 2 -6 4 7 5 30 1 22 7 49 12 60 8 14 8 20 -1 23 -12 4 6 47 26 61 8 5
8 9 0 15 -14 8 -6 72 8 72 6 0 8 14 6 30 -3 17 -1 30 2 30 4 0 5 12 2 26 -3
19 -1 25 7 20 9 -6 10 9 5 61 -3 37 -8 71 -11 76 -2 4 1 7 6 7 6 0 11 -6 12
-12 0 -7 4 -4 9 7 4 11 4 24 -1 29 -13 14 -11 46 2 46 8 0 7 6 -2 17 -12 15
-12 16 1 8 11 -7 10 -2 -4 19 -10 16 -13 26 -8 22 8 -4 10 30 9 109 -1 63 -6
115 -10 115 -4 0 -4 8 1 17 7 11 6 21 -2 29 -18 17 -73 27 -81 15z m-290
-1792 c11 -16 1 -19 -13 -3 -7 8 -8 14 -3 14 5 0 13 -5 16 -11z"/>
<path d="M11094 12512 c-10 -8 -17 -28 -18 -53 0 -9 -6 -15 -13 -12 -7 3 -13
-2 -13 -11 0 -9 -5 -16 -11 -16 -6 0 -8 -7 -5 -17 4 -9 2 -19 -4 -23 -9 -6
-18 -43 -24 -105 -2 -11 -6 -27 -10 -36 -4 -9 -6 -22 -4 -30 2 -8 -4 -13 -12
-12 -11 2 -16 -7 -18 -35 -2 -42 -5 -62 -12 -77 -3 -5 -5 -35 -5 -67 0 -47 -2
-54 -14 -45 -12 10 -13 8 -9 -10 4 -13 2 -23 -3 -23 -5 0 -9 -7 -9 -15 0 -8 5
-15 12 -15 7 0 6 -5 -4 -12 -23 -19 -30 -58 -11 -58 13 0 11 -4 -5 -18 -20
-18 -20 -20 -4 -37 16 -17 16 -18 0 -6 -14 11 -17 10 -16 -6 1 -10 -2 -29 -6
-42 -6 -16 -5 -21 3 -17 6 4 11 3 11 -3 0 -5 -5 -11 -11 -13 -15 -5 -22 -65
-9 -73 6 -3 10 -11 10 -16 0 -6 -4 -7 -10 -4 -5 3 -10 1 -10 -4 0 -6 5 -11 12
-11 6 0 3 -7 -8 -15 -10 -8 -14 -15 -9 -15 13 0 14 -80 2 -80 -5 0 -7 -7 -3
-15 3 -8 1 -15 -5 -15 -6 0 -7 -5 -4 -10 4 -6 11 -8 16 -5 5 3 6 -1 3 -9 -3
-9 -10 -16 -14 -16 -4 0 -6 -14 -4 -32 2 -17 -1 -37 -6 -43 -7 -8 -7 -21 -1
-38 8 -19 6 -28 -5 -38 -12 -10 -14 -26 -10 -66 3 -29 2 -53 -2 -53 -4 0 -6
-19 -4 -41 3 -29 1 -40 -7 -35 -6 4 -11 1 -11 -8 0 -8 -3 -22 -7 -32 -5 -13
-3 -15 7 -9 10 6 11 3 5 -16 -11 -36 -11 -102 0 -118 7 -11 7 -13 -1 -8 -16
10 -25 -18 -11 -33 9 -10 9 -11 0 -6 -7 4 -13 2 -13 -4 0 -21 35 -5 38 18 2
12 7 20 12 17 5 -3 11 -1 15 5 3 5 1 10 -6 10 -7 0 -9 10 -7 25 3 13 0 26 -6
29 -7 3 -6 8 3 14 8 6 11 17 8 26 -4 9 -1 35 7 56 10 29 10 40 2 40 -8 0 -7 3
1 8 7 4 10 23 8 45 -1 20 1 34 6 31 5 -3 9 -1 9 5 0 5 -6 12 -12 15 -9 3 -8 8
5 16 24 15 21 29 -5 24 -13 -2 -17 -2 -10 2 6 3 12 12 12 20 0 8 4 14 8 14 4
0 8 9 8 20 0 11 -4 20 -8 20 -4 0 -8 5 -8 10 0 6 8 10 18 10 10 0 13 3 6 8
-12 7 -7 85 5 78 4 -3 8 4 8 15 1 11 -3 17 -9 13 -6 -4 -5 3 2 16 10 18 10 21
-2 15 -10 -6 -11 -5 -1 5 10 11 10 17 0 29 -10 12 -9 13 1 7 11 -7 13 -1 9 28
-3 20 -1 39 4 42 10 6 7 63 -5 82 -4 8 -2 10 7 6 21 -8 30 12 16 34 -7 12 -9
27 -4 38 5 11 7 22 7 27 -1 4 4 7 10 7 7 0 13 11 13 24 0 14 -5 22 -12 19 -7
-3 -10 3 -6 16 3 12 8 21 12 21 4 0 6 16 5 35 -2 19 1 35 5 35 5 0 12 7 15 16
3 8 2 12 -4 9 -6 -3 -10 -1 -10 5 0 6 6 13 13 16 15 5 17 75 3 85 -5 4 1 10
12 13 13 4 19 13 15 22 -3 7 -1 14 5 14 5 0 9 18 9 40 0 22 6 46 13 55 9 11 9
15 1 15 -8 0 -6 6 4 16 9 9 14 23 10 32 -3 8 3 21 12 28 17 13 17 14 -2 8 -19
-5 -19 -5 -2 9 17 14 24 33 8 23 -4 -3 -6 6 -3 19 2 14 11 25 19 25 10 0 14 7
10 19 -3 11 2 29 10 40 8 12 11 21 7 21 -4 0 2 9 14 20 12 12 22 23 22 26 0
12 -27 32 -36 26z"/>
<path d="M11056 12485 c-3 -8 -1 -15 4 -15 6 0 10 7 10 15 0 8 -2 15 -4 15 -2
0 -6 -7 -10 -15z"/>
<path d="M12099 11876 c-1 -4 -2 -12 -3 -18 -1 -7 -7 -12 -14 -11 -7 2 -9 -4
-5 -15 3 -9 3 -14 -2 -10 -4 4 -15 -3 -25 -15 l-18 -22 -27 28 c-26 26 -53 38
-41 18 4 -5 -3 -7 -14 -4 -11 3 -20 10 -20 15 0 6 -9 8 -20 5 -11 -3 -27 1
-34 9 -11 10 -21 11 -38 5 -15 -5 -31 -5 -41 0 -11 7 -17 6 -17 -1 0 -6 -4 -8
-10 -5 -9 6 -15 -22 -11 -53 1 -8 -3 -20 -10 -28 -8 -10 -8 -14 0 -14 6 0 11
-7 11 -16 0 -23 32 -74 47 -74 7 0 13 -5 13 -11 0 -5 -6 -7 -12 -3 -7 4 -4 -2
6 -14 23 -27 28 -28 19 -5 -12 30 54 -28 67 -59 11 -24 23 -34 33 -25 1 1 18
-13 36 -32 23 -23 43 -34 62 -34 34 0 34 -1 14 -21 -13 -12 -13 -19 -4 -34 15
-23 46 -18 54 9 4 10 11 19 16 19 6 0 7 5 4 10 -3 6 -1 10 4 10 6 0 11 6 11
13 0 6 7 25 15 41 9 16 14 37 13 45 -1 9 1 22 5 29 5 7 3 12 -5 12 -9 0 -9 3
2 10 8 5 16 22 16 37 3 43 3 45 14 38 6 -3 10 -1 10 4 0 6 -5 11 -12 11 -6 0
-3 9 8 21 16 17 16 23 5 42 -10 15 -10 22 -2 25 7 2 8 9 1 22 -6 11 -9 25 -8
32 2 9 -12 14 -44 16 -27 2 -49 1 -49 -2z m57 -36 c10 0 11 -6 4 -25 -8 -20
-6 -25 6 -25 8 0 12 -5 9 -10 -4 -6 -11 -8 -16 -5 -5 4 -9 -3 -9 -14 0 -11 5
-23 11 -26 7 -5 3 -14 -9 -26 -27 -25 -36 -57 -22 -74 10 -12 10 -15 1 -15 -7
0 -10 -4 -7 -8 10 -16 -15 -84 -28 -79 -8 3 -13 -1 -12 -10 2 -25 -21 -26 -44
-3 -11 11 -26 18 -31 14 -8 -4 -9 1 -4 17 7 22 7 23 -10 9 -17 -14 -18 -13
-12 3 4 11 3 16 -3 12 -6 -3 -10 -1 -10 6 0 10 -3 10 -12 1 -7 -7 -19 -12 -27
-12 -13 1 -13 2 2 11 9 5 17 15 17 21 0 6 -3 8 -7 5 -3 -4 -12 2 -20 13 -8 11
-23 20 -34 20 -10 0 -19 5 -19 10 0 6 -6 10 -14 10 -10 0 -12 7 -8 23 5 20 4
21 -13 7 -17 -14 -18 -13 -12 2 4 11 0 21 -9 26 -9 5 -16 25 -17 49 0 23 -5
39 -11 36 -5 -3 -6 -1 -3 5 4 5 16 8 27 5 13 -3 20 0 20 8 0 12 2 12 9 0 7
-11 49 -18 120 -21 7 0 11 -6 8 -14 -4 -10 1 -13 16 -10 12 2 16 2 10 -2 -9
-4 -10 -11 -3 -25 6 -10 7 -19 2 -19 -4 0 -8 -9 -9 -21 -2 -16 1 -18 11 -10 7
6 16 8 19 4 4 -3 7 -1 7 7 0 10 3 10 14 1 12 -10 13 -9 9 7 -3 13 5 29 24 46
15 14 24 26 20 26 -4 0 -2 6 5 14 7 8 17 11 22 8 5 -3 7 5 3 17 -4 17 -2 21
10 17 8 -3 21 -6 29 -6z"/>
<path d="M11040 11470 c0 -5 5 -10 11 -10 5 0 7 5 4 10 -3 6 -8 10 -11 10 -2
0 -4 -4 -4 -10z"/>
<path d="M13240 10642 c0 -15 19 -36 26 -29 4 4 13 2 21 -4 7 -6 13 -8 13 -4
0 4 7 2 15 -5 8 -6 18 -9 23 -7 4 3 14 2 22 -4 12 -7 12 -9 1 -9 -9 0 -12 -8
-9 -25 3 -13 1 -22 -3 -19 -5 3 -9 -4 -9 -15 0 -14 -9 -22 -32 -27 -18 -4 -36
-7 -40 -6 -5 1 -8 -2 -8 -8 0 -5 3 -10 8 -11 4 0 18 -3 32 -5 16 -3 29 2 38
13 7 10 16 17 20 15 16 -8 45 74 38 103 -4 15 -10 25 -13 21 -4 -3 -16 0 -27
7 -12 7 -31 12 -43 11 -13 -1 -23 2 -23 5 0 4 -11 8 -25 9 -14 1 -25 -2 -25
-6z"/>
<path d="M13045 10579 c-4 -5 -3 -14 1 -21 5 -8 2 -9 -9 -5 -11 4 -17 1 -17
-9 0 -8 -5 -12 -10 -9 -19 12 -39 -15 -46 -61 -3 -24 -10 -41 -15 -38 -13 7
-11 -10 2 -23 8 -8 7 -17 -2 -32 -12 -18 -11 -23 9 -41 12 -11 22 -16 22 -10
0 5 7 10 15 10 20 0 24 61 5 68 -4 2 -1 16 7 32 8 17 12 34 8 40 -3 6 1 13 9
16 9 3 16 12 16 18 0 8 16 13 40 14 38 2 52 -9 30 -23 -8 -5 -8 -11 -1 -19 6
-7 8 -16 4 -19 -3 -4 -6 -24 -7 -44 -1 -31 4 -41 23 -51 20 -10 26 -10 32 0 5
8 3 14 -6 16 -8 2 -15 10 -15 18 0 8 4 13 8 10 9 -5 8 65 -2 107 -5 22 -3 27
6 22 7 -4 6 -1 -3 7 -9 7 -14 19 -11 27 3 10 0 11 -13 3 -11 -5 -30 -6 -47 -2
-16 5 -30 5 -33 -1z"/>
<path d="M12819 10493 c-7 -13 -16 -23 -21 -23 -4 0 -8 -9 -8 -20 0 -11 -6
-23 -12 -25 -19 -7 -21 -62 -2 -62 7 0 14 4 14 9 0 5 5 6 10 3 6 -4 7 -12 1
-22 -4 -9 -6 -25 -3 -35 3 -11 -1 -24 -9 -29 -11 -7 -9 -9 9 -10 12 -1 28 -2
35 -3 6 -1 12 6 12 14 0 23 18 40 27 26 5 -7 8 -3 8 9 0 11 7 31 16 43 8 12
13 22 10 22 -3 0 -1 11 4 25 8 21 6 25 -8 26 -14 0 -14 2 2 8 19 7 19 8 -1 13
-15 4 -20 12 -18 32 3 23 0 26 -25 24 -18 -1 -33 -11 -41 -25z m45 -39 c12 -5
13 -10 5 -25 -6 -13 -6 -19 0 -19 7 0 7 -9 -1 -25 -12 -27 -31 -35 -22 -10 4
8 1 15 -5 15 -8 0 -7 7 3 22 11 16 13 25 4 35 -12 14 -8 16 16 7z"/>
<path d="M12435 10479 c-3 -4 -2 -15 2 -25 5 -13 3 -16 -8 -12 -11 4 -14 -3
-14 -34 0 -21 -6 -43 -14 -47 -9 -6 -6 -10 11 -13 30 -6 51 16 43 42 -4 11 -2
20 3 20 5 0 9 17 9 38 0 26 -5 39 -14 39 -8 0 -16 -4 -18 -8z"/>
<path d="M10775 10380 c-3 -5 -1 -10 4 -10 6 0 11 5 11 10 0 6 -2 10 -4 10 -3
0 -8 -4 -11 -10z"/>
<path d="M10715 10350 c-4 -12 -5 -24 -2 -27 3 -2 8 5 12 17 4 12 5 24 2 27
-3 2 -8 -5 -12 -17z"/>
<path d="M12609 10340 c-1 -8 -1 -26 -1 -39 1 -14 -3 -31 -10 -38 -7 -9 -7
-13 1 -13 13 0 10 -22 -4 -32 -6 -5 -5 -11 3 -16 7 -5 11 -15 9 -23 -2 -8 -2
-11 0 -6 3 4 9 5 14 2 5 -4 17 -1 26 4 12 7 13 11 5 11 -10 0 -12 8 -7 30 6
26 4 29 -12 24 -14 -6 -16 -4 -6 6 7 7 9 27 6 49 -6 38 -22 65 -24 41z"/>
<path d="M12394 10325 c-3 -8 -2 -19 2 -26 4 -8 3 -9 -4 -5 -7 4 -12 2 -12 -3
0 -6 8 -11 18 -11 16 -1 16 -2 -2 -15 -10 -8 -15 -19 -11 -25 4 -7 1 -16 -6
-21 -12 -7 -12 -9 0 -9 11 0 11 -3 1 -15 -7 -8 -8 -15 -3 -15 5 0 10 -15 11
-34 1 -29 -3 -36 -28 -45 -22 -7 -30 -7 -31 2 -2 32 -8 70 -14 75 -3 3 -14 -4
-25 -16 -12 -12 -18 -22 -14 -22 4 0 0 -8 -9 -18 -10 -11 -13 -22 -7 -32 10
-16 3 -33 -11 -25 -5 4 -14 -6 -19 -21 -10 -26 -11 -26 -30 -9 -33 30 -30 73
9 113 36 39 61 49 61 26 0 -9 4 -13 9 -10 5 3 9 17 9 32 0 18 -3 22 -9 13 -7
-11 -9 -11 -9 2 0 16 -26 19 -49 5 -11 -7 -11 -10 0 -17 11 -7 11 -9 2 -10 -7
-1 -18 -2 -23 -3 -14 -1 -30 -28 -24 -38 2 -4 -5 -12 -16 -18 -12 -6 -19 -17
-17 -25 3 -7 0 -18 -6 -25 -9 -10 -9 -11 1 -6 6 4 12 3 12 -3 0 -5 -6 -11 -12
-14 -10 -3 -9 -9 3 -23 9 -10 15 -23 13 -29 -2 -6 12 -9 34 -9 63 2 65 3 59
24 -4 17 -1 19 19 14 19 -5 23 -3 18 10 -4 11 -1 16 10 16 9 0 16 -5 16 -12 0
-6 3 -8 7 -4 5 4 -1 14 -11 22 -11 8 -15 14 -9 14 6 0 16 -7 23 -15 7 -8 20
-14 29 -13 9 2 15 -3 13 -11 -3 -12 -1 -12 13 -1 10 9 12 16 5 20 -18 11 23
38 57 36 17 0 29 2 27 5 -2 4 3 12 11 19 14 11 21 40 11 40 -3 0 -16 -4 -31
-10 -15 -6 -24 -6 -20 -1 3 5 1 12 -5 16 -7 4 -7 12 0 26 7 13 7 25 0 38 -12
24 -13 44 -1 37 4 -3 13 6 20 20 8 18 8 23 0 18 -7 -4 -9 0 -5 13 5 15 1 19
-19 21 -15 1 -28 -4 -31 -13z"/>
<path d="M11775 10171 c-3 -5 -1 -12 5 -16 5 -3 10 1 10 9 0 18 -6 21 -15 7z"/>
<path d="M12101 10143 c-13 -9 -21 -11 -17 -5 4 7 2 12 -3 12 -10 0 -15 -14
-12 -33 1 -5 -12 -6 -29 -2 -27 6 -30 4 -30 -17 0 -13 -5 -29 -10 -34 -8 -8
-8 -19 0 -38 5 -15 7 -33 3 -39 -7 -11 -11 -88 -4 -81 2 2 10 -1 18 -8 10 -8
17 -8 25 0 9 9 8 12 -3 12 -10 1 -9 4 5 15 10 8 15 19 10 26 -17 29 -12 72 13
97 14 14 22 31 18 39 -4 12 0 14 16 10 16 -4 19 -2 14 10 -3 9 0 20 6 24 6 3
10 12 8 18 -3 8 -12 6 -28 -6z"/>
<path d="M11764 10107 c2 -21 6 -41 10 -44 3 -3 1 -12 -5 -20 -9 -10 -8 -13 2
-13 9 -1 8 -5 -5 -15 -11 -8 -16 -15 -11 -15 4 0 -2 -9 -15 -20 -13 -11 -28
-20 -34 -20 -6 0 -5 -4 3 -9 8 -5 10 -14 6 -21 -5 -8 -4 -11 2 -7 5 3 20 -1
32 -9 20 -14 21 -22 16 -75 -7 -61 -1 -71 21 -41 10 12 13 13 14 3 0 -8 -7
-19 -17 -26 -14 -11 -13 -13 9 -17 25 -5 25 -4 25 58 -1 34 -4 61 -8 58 -4 -2
-9 9 -11 26 -3 18 0 31 8 34 7 3 14 17 16 33 2 16 9 28 18 29 25 2 60 16 60
24 0 4 7 10 14 13 11 4 13 1 9 -10 -4 -11 1 -9 16 6 21 21 22 24 7 39 -12 12
-16 13 -16 3 0 -8 -6 -11 -15 -7 -8 3 -15 0 -15 -7 0 -8 -4 -6 -10 3 -8 13
-10 12 -10 -2 0 -10 -6 -19 -12 -19 -25 -2 -53 3 -68 13 -12 8 -12 9 2 4 15
-4 16 0 11 27 -3 18 -11 38 -17 46 -8 11 -8 13 2 7 6 -4 12 -3 12 2 0 6 -11 9
-25 8 -22 -1 -24 -5 -21 -39z m11 -187 c3 -5 1 -10 -4 -10 -6 0 -11 5 -11 10
0 6 2 10 4 10 3 0 8 -4 11 -10z"/>
<path d="M12200 10119 c0 -5 5 -7 10 -4 6 3 10 8 10 11 0 2 -4 4 -10 4 -5 0
-10 -5 -10 -11z"/>
<path d="M9286 10021 c-4 -5 -3 -17 1 -28 3 -10 3 -15 -2 -11 -15 14 -34 -25
-24 -49 9 -25 2 -56 -11 -48 -4 3 -10 -2 -14 -10 -3 -8 -1 -15 4 -15 7 0 7 -7
0 -20 -5 -11 -14 -29 -20 -39 -6 -14 -6 -21 3 -24 9 -4 9 -6 -1 -6 -7 -1 -10
-5 -7 -11 3 -5 1 -10 -5 -10 -7 0 -10 -7 -6 -15 3 -8 -2 -22 -11 -31 -10 -10
-17 -32 -16 -53 0 -20 -2 -30 -4 -23 -8 21 -25 13 -18 -8 4 -12 2 -20 -5 -20
-6 0 -9 -4 -5 -9 3 -5 2 -12 -3 -15 -5 -3 -7 -19 -6 -36 2 -24 -1 -28 -11 -20
-9 8 -12 1 -10 -31 2 -26 -1 -36 -6 -28 -7 12 -9 11 -10 -1 -1 -8 -1 -20 0
-26 1 -6 -5 -17 -13 -24 -10 -7 -13 -23 -10 -43 2 -18 1 -26 -2 -19 -4 9 -19
-12 -40 -54 -18 -37 -31 -71 -28 -76 3 -4 -2 -11 -10 -14 -9 -3 -16 -15 -16
-26 0 -13 -5 -18 -14 -15 -10 4 -13 1 -10 -7 3 -8 0 -17 -7 -22 -8 -4 -10 -3
-5 4 4 7 2 12 -3 12 -10 0 -16 -29 -12 -52 0 -5 -3 -8 -9 -8 -5 0 -7 -7 -3
-15 3 -9 2 -15 -3 -14 -23 4 -34 -3 -34 -21 0 -11 -7 -20 -15 -20 -8 0 -15 -7
-15 -15 0 -8 -12 -21 -27 -29 -16 -9 -21 -16 -13 -16 13 -1 13 -2 -1 -13 -8
-7 -21 -21 -27 -32 -11 -19 -11 -19 -12 -1 0 20 0 20 -14 0 -13 -17 -12 -21 1
-36 17 -19 38 -25 28 -8 -3 6 1 10 9 10 9 0 15 3 15 8 -4 22 3 32 21 32 11 0
20 7 20 15 0 8 9 23 20 32 11 10 20 28 20 40 0 15 5 21 14 17 9 -3 17 3 21 15
3 12 13 21 20 21 8 0 12 6 9 14 -3 7 7 23 22 35 15 12 24 24 21 28 -4 3 1 12
11 19 9 7 17 21 17 31 0 10 6 17 13 15 8 -1 11 2 7 8 -3 5 -1 10 5 10 6 0 8 4
5 10 -3 5 1 20 10 33 8 13 12 27 9 30 -4 4 1 9 10 13 9 3 16 14 16 24 0 10 6
21 13 23 9 4 9 6 0 6 -7 1 -10 8 -7 16 4 8 11 12 18 8 6 -3 6 -1 -1 8 -18 18
-16 32 2 25 15 -5 17 1 19 52 1 9 7 23 14 31 11 11 11 15 1 22 -10 6 -9 9 4
15 9 3 17 15 17 26 0 11 7 26 15 35 12 11 13 19 5 28 -8 10 -8 15 0 20 6 4 9
13 6 21 -3 8 0 11 10 7 8 -3 14 1 14 9 0 8 7 30 16 48 12 23 13 34 5 39 -7 5
-5 14 9 29 12 12 18 22 14 22 -3 0 -1 7 7 16 10 13 10 17 -2 25 -12 7 -11 9 2
9 9 0 19 9 22 20 3 11 2 20 -3 20 -4 0 -7 11 -6 23 1 19 5 23 21 19 18 -5 18
-3 7 11 -12 14 -11 19 3 34 17 16 16 17 -1 24 -26 10 -32 10 -38 0z"/>
<path d="M11586 9973 c-4 -5 -11 -8 -14 -9 -14 -1 -72 -39 -72 -47 0 -5 -6 -5
-12 -2 -7 4 -5 0 6 -9 10 -8 15 -20 11 -26 -6 -9 -2 -9 13 -1 15 8 23 7 32 -4
7 -8 9 -15 4 -15 -4 0 9 -9 31 -20 30 -15 41 -17 48 -7 6 8 7 6 3 -6 -3 -10
-6 -24 -6 -31 0 -12 -28 -43 -80 -88 -11 -10 -26 -18 -34 -18 -18 0 -27 -13
-18 -25 17 -23 77 -13 68 11 -3 8 0 15 7 15 7 1 17 2 24 3 17 1 72 63 65 71
-4 3 0 10 8 15 11 7 11 11 1 24 -7 8 -10 20 -6 26 7 12 -19 53 -28 43 -4 -3
-7 -1 -7 4 0 6 -11 10 -25 8 -14 -1 -28 2 -32 8 -3 6 -1 7 5 3 7 -4 12 -2 12
3 0 6 -7 11 -15 11 -8 0 -15 7 -15 16 0 8 5 12 10 9 6 -3 10 -2 10 3 0 5 11 7
25 4 15 -2 25 0 25 7 0 6 -5 11 -11 11 -5 0 -7 5 -4 10 7 12 -18 14 -29 3z"/>
<path d="M10991 9873 c-1 -7 -7 -13 -15 -13 -14 0 -16 -23 -4 -36 4 -3 2 -17
-3 -31 -5 -14 -7 -28 -4 -33 3 -4 -2 -13 -10 -20 -8 -7 -13 -22 -11 -34 3 -11
5 -25 5 -30 1 -5 9 -2 19 5 14 11 15 11 5 -1 -15 -17 -17 -56 -3 -65 6 -3 10
-14 10 -23 1 -23 34 -61 57 -65 10 -1 24 -6 30 -10 9 -6 11 -3 6 10 -6 16 -5
17 12 3 17 -14 18 -14 5 10 -12 23 -12 24 3 11 14 -11 18 -11 23 4 4 9 2 21
-5 28 -8 8 -11 8 -11 -1 0 -7 -9 -12 -20 -12 -11 0 -20 -4 -20 -10 0 -5 -4
-10 -10 -10 -5 0 -10 7 -10 15 0 8 -7 15 -15 15 -8 0 -15 8 -15 18 0 10 -5 23
-12 30 -7 7 -8 12 -4 12 5 0 2 8 -5 17 -10 11 -10 14 -1 9 14 -9 17 41 3 63
-11 17 -3 43 10 35 5 -3 4 6 -2 20 -9 19 -9 29 0 39 8 10 8 22 2 38 -5 13 -10
18 -10 12z"/>
<path d="M10754 9795 c-4 -14 -4 -29 0 -32 3 -3 1 -12 -5 -20 -9 -10 -8 -13 1
-13 9 0 8 -6 -4 -19 -18 -20 -13 -47 6 -35 6 4 5 -2 -1 -15 -7 -12 -9 -25 -6
-30 3 -5 -1 -12 -7 -14 -10 -4 -10 -6 0 -6 16 -1 16 -51 0 -51 -9 0 -9 -3 -1
-11 6 -6 9 -18 6 -27 -5 -11 -3 -13 7 -7 10 6 11 2 6 -19 -4 -15 -3 -25 1 -23
5 3 15 -8 22 -25 13 -29 15 -30 28 -13 7 11 13 14 13 8 0 -24 43 2 56 33 21
50 17 58 -17 33 -26 -18 -35 -20 -55 -10 -14 6 -22 16 -19 21 3 6 0 10 -7 11
-7 0 -5 3 4 7 16 7 16 10 2 36 -13 27 -13 31 2 39 13 8 14 11 3 18 -12 8 -12
10 0 18 11 7 11 10 0 15 -11 5 -11 7 -1 12 6 3 12 17 12 30 0 13 -6 24 -12 24
-10 0 -10 2 0 8 7 5 10 16 6 25 -3 9 -2 17 3 17 5 0 10 7 10 15 0 8 -2 13 -5
10 -3 -2 -13 0 -23 6 -15 8 -20 5 -25 -16z"/>
<path d="M11188 9808 c-21 -17 -31 -48 -15 -48 7 0 4 -7 -6 -14 -12 -9 -14
-16 -8 -21 8 -4 8 -12 0 -27 -7 -12 -7 -18 -1 -14 7 4 10 -11 8 -41 -2 -49 17
-84 42 -75 7 2 19 -1 27 -8 12 -10 15 -9 15 4 0 9 4 16 9 16 14 0 66 51 64 61
-2 5 2 9 7 9 6 0 10 -4 10 -10 0 -5 7 -10 16 -10 8 0 12 -4 9 -10 -4 -6 8 -10
29 -10 27 0 34 3 30 15 -4 8 -12 15 -19 15 -7 0 -16 7 -19 16 -3 8 -2 12 4 9
6 -4 10 7 10 25 0 18 -4 29 -10 25 -5 -3 -10 1 -10 9 0 9 5 16 10 16 19 0 10
21 -12 29 -22 8 -51 -8 -47 -26 4 -15 -21 -63 -32 -63 -7 0 -9 -9 -6 -21 4
-15 2 -18 -7 -10 -8 7 -15 4 -24 -10 -7 -11 -10 -24 -7 -28 3 -5 -2 -11 -10
-15 -8 -3 -15 -1 -15 5 0 6 -4 8 -9 5 -9 -6 -21 15 -28 47 -2 10 1 16 7 12 5
-3 10 -1 10 4 0 6 -3 11 -7 11 -5 0 -9 11 -9 25 -1 14 2 22 8 19 14 -9 -2 39
-16 48 -7 5 -5 8 6 8 11 0 16 7 15 20 -1 11 -2 20 -2 20 -1 0 -8 -6 -17 -12z
m199 -114 c-3 -3 -12 -4 -19 -1 -8 3 -5 6 6 6 11 1 17 -2 13 -5z"/>
<path d="M10620 9675 c-4 -14 -10 -66 -10 -92 0 -12 -5 -25 -11 -29 -8 -4 -7
-9 2 -16 10 -7 11 -11 2 -14 -13 -6 -6 -34 11 -47 7 -5 2 -7 -11 -4 -16 3 -23
0 -23 -9 0 -8 5 -14 10 -14 6 0 10 -5 10 -11 0 -5 -4 -8 -10 -4 -5 3 -7 -8 -5
-26 2 -18 1 -37 -3 -43 -11 -19 -10 -50 3 -69 13 -18 14 -18 24 2 10 17 9 21
-5 21 -14 0 -12 4 7 21 23 20 24 21 5 35 -17 12 -18 14 -3 14 9 0 17 5 17 11
0 5 -5 7 -12 3 -7 -4 -8 -3 -4 5 18 28 41 241 26 241 -5 0 -11 8 -13 18 -3 9
-6 13 -7 7z"/>
<path d="M8066 9271 c-3 -5 1 -14 9 -21 10 -9 15 -9 15 -1 0 6 -5 11 -11 11
-5 0 -7 5 -4 10 3 6 4 10 1 10 -3 0 -7 -4 -10 -9z"/>
<path d="M8144 8879 c-9 -10 -14 -22 -11 -26 4 -3 7 -3 7 2 0 4 10 -5 23 -21
12 -16 21 -32 20 -36 -2 -5 3 -8 11 -8 8 0 21 -6 28 -14 20 -19 55 -29 63 -16
10 16 -14 40 -32 33 -12 -5 -15 -2 -10 10 4 11 1 17 -8 17 -7 0 -17 9 -20 20
-3 11 -13 20 -21 20 -8 0 -13 3 -11 8 3 4 -1 12 -8 19 -10 9 -17 8 -31 -8z"/>
<path d="M8695 8844 c-16 -13 -31 -21 -33 -19 -3 2 -11 -3 -19 -11 -8 -8 -19
-11 -25 -8 -7 4 -8 2 -4 -4 4 -7 1 -12 -6 -12 -7 0 -26 -7 -42 -15 -16 -9 -37
-13 -48 -10 -10 4 -18 1 -18 -5 0 -8 -9 -10 -25 -6 -18 5 -24 3 -23 -6 2 -7
-3 -12 -10 -10 -6 1 -27 3 -46 5 -19 1 -33 4 -31 7 2 3 -14 7 -36 7 -21 1 -39
-2 -39 -8 0 -5 5 -9 10 -9 6 0 10 -7 10 -15 0 -18 52 -33 58 -17 5 15 39 16
47 2 3 -5 15 -10 26 -10 11 0 18 4 15 8 -3 5 8 9 24 10 17 0 44 7 60 16 20 10
30 11 30 3 0 -8 4 -7 12 1 7 7 21 12 31 12 13 0 17 5 13 15 -4 12 3 15 29 15
27 0 33 3 29 15 -5 11 -2 13 10 9 9 -3 16 -2 16 4 0 5 14 15 30 22 17 7 29 18
27 24 -6 19 -42 14 -72 -10z"/>
</g>
</svg>
